<svg width="46" height="120" viewBox="0 0 46 120" fill="none" xmlns="http://www.w3.org/2000/svg">
<path d="M23.0574 44.2636C20.9587 44.2636 17.7099 42 14.2887 42.0818C9.77491 42.1364 5.63491 44.5636 3.30616 48.4091C-1.38009 56.1273 2.09866 67.5273 6.66991 73.8C8.91241 76.8546 11.5574 80.2909 15.0649 80.1818C18.4287 80.0455 19.6937 78.1091 23.7762 78.1091C27.8299 78.1091 28.9799 80.1818 32.5449 80.1C36.1674 80.0455 38.4674 76.9909 40.6812 73.9091C43.2399 70.3636 44.3037 66.9273 44.3612 66.7364C44.2749 66.7091 37.3174 64.1727 37.2312 56.5364C37.1737 50.1546 42.7224 47.1 42.9812 46.9636C39.8187 42.5727 34.9599 42.0818 33.2637 41.9727C28.8362 41.6455 25.1274 44.2636 23.0574 44.2636ZM30.5324 37.8273C32.4012 35.7 33.6374 32.7273 33.2924 29.7818C30.6187 29.8909 27.3987 31.4727 25.4724 33.6C23.7474 35.4818 22.2524 38.5091 22.6549 41.4C25.6162 41.6182 28.6637 39.9546 30.5324 37.8273Z" fill="#F5F5F7"/>
</svg>
